<svg version="1.1" xmlns="http://www.w3.org/2000/svg" viewBox="0 0 720 226" width="720" height="226"><!-- svg-source:excalidraw --><metadata></metadata><defs><style class="style-fonts">
      </style></defs><rect x="0" y="0" width="720" height="226" fill="#ffffff"></rect><g stroke-linecap="round" transform="translate(10 10) rotate(0 100 33)"><path d="M16.5 0 C55.06 0.32, 89.2 -1.86, 183.5 0 C192.58 1.4, 203.43 2.36, 200 16.5 C199.03 29.11, 201.16 37.48, 200 49.5 C196.68 64.07, 192.63 62.64, 183.5 66 C150.52 66.5, 111.84 66.07, 16.5 66 C5.43 68.53, 1.2 59.21, 0 49.5 C0.46 39.89, -2.55 31.32, 0 16.5 C-0.7 3.24, 4.79 -2.73, 16.5 0" stroke="none" stroke-width="0" fill="#a5d8ff"></path><path d="M16.5 0 C55.34 2.71, 95.24 2.67, 183.5 0 M16.5 0 C76.18 1.2, 137.95 1.66, 183.5 0 M183.5 0 C193.04 -1.84, 199.04 7.01, 200 16.5 M183.5 0 C192.54 1.86, 201.6 3.42, 200 16.5 M200 16.5 C200.67 23.26, 198.17 33.63, 200 49.5 M200 16.5 C199.82 27.52, 200.58 37.96, 200 49.5 M200 49.5 C201.13 61.89, 196.13 66.26, 183.5 66 M200 49.5 C200.8 60.18, 196.6 64.73, 183.5 66 M183.5 66 C134.05 64.79, 84.69 64.67, 16.5 66 M183.5 66 C123.37 68.48, 62.7 66.69, 16.5 66 M16.5 66 C7.28 65.24, 1.48 61.28, 0 49.5 M16.5 66 C5.62 67.68, 1.75 61.49, 0 49.5 M0 49.5 C1.45 38.42, -0.54 28.31, 0 16.5 M0 49.5 C-0.1 40.95, 0.04 31.71, 0 16.5 M0 16.5 C-1.69 4.55, 4.67 0.72, 16.5 0 M0 16.5 C-0.94 6.07, 3.83 1.69, 16.5 0" stroke="#1e1e1e" stroke-width="2" fill="none"></path></g><g stroke-linecap="round" transform="translate(260 10) rotate(0 100 33)"><path d="M16.5 0 C59.28 -3.85, 99.44 -5.14, 183.5 0 C191.8 0.13, 200.36 2.12, 200 16.5 C200.05 27.88, 199.3 42.93, 200 49.5 C197.57 64.03, 193.6 66.99, 183.5 66 C133.27 63.89, 85.75 65.55, 16.5 66 C4.54 69.57, -0.3 60.04, 0 49.5 C-1.07 39.52, -3.52 29.98, 0 16.5 C1.4 4.01, 3.19 3.27, 16.5 0" stroke="none" stroke-width="0" fill="#a5d8ff"></path><path d="M16.5 0 C57.42 -2.44, 96.17 -2.32, 183.5 0 M16.5 0 C51.45 0.3, 86.95 -0.41, 183.5 0 M183.5 0 C195.61 -1.24, 200.13 5.11, 200 16.5 M183.5 0 C194.71 -1.45, 201.22 5.28, 200 16.5 M200 16.5 C199.51 28.75, 201.16 41.62, 200 49.5 M200 16.5 C199.66 27.14, 199.9 39.15, 200 49.5 M200 49.5 C201.14 60.77, 195.09 67.09, 183.5 66 M200 49.5 C198.9 60.96, 194.2 63.76, 183.5 66 M183.5 66 C143.95 64.42, 105.29 65.52, 16.5 66 M183.5 66 C130.14 66.47, 76.26 66.23, 16.5 66 M16.5 66 C5.11 65.72, -0.61 59.97, 0 49.5 M16.5 66 C4.4 67.82, 0.79 62.34, 0 49.5 M0 49.5 C-0.01 39.91, 1.61 32.59, 0 16.5 M0 49.5 C-0.48 43.53, 0.52 35.49, 0 16.5 M0 16.5 C1.7 7.12, 6.08 1.23, 16.5 0 M0 16.5 C-1.24 5.37, 4.5 -1.82, 16.5 0" stroke="#1e1e1e" stroke-width="2" fill="none"></path></g><g stroke-linecap="round" transform="translate(510 10) rotate(0 100 33)"><path d="M16.5 0 C73.67 -5.89, 129.96 -0.78, 183.5 0 C193.72 1.98, 198.88 4.92, 200 16.5 C203.62 25.49, 197.82 38.6, 200 49.5 C200.03 60.1, 197.62 64.39, 183.5 66 C126.52 63.03, 76.65 63.04, 16.5 66 C4.36 67.98, 2.13 57.86, 0 49.5 C-0.27 35.54, 1.56 25.85, 0 16.5 C-2.5 5.07, 3.11 1.76, 16.5 0" stroke="none" stroke-width="0" fill="#d0bfff"></path><path d="M16.5 0 C73.83 -0.95, 135.39 0.84, 183.5 0 M16.5 0 C80.12 0.43, 143.02 -0.31, 183.5 0 M183.5 0 C192.67 0.58, 201.65 4.56, 200 16.5 M183.5 0 C195.28 0.25, 201.25 6.99, 200 16.5 M200 16.5 C197.82 23.93, 198.28 33.65, 200 49.5 M200 16.5 C201.22 26.49, 200.22 38.46, 200 49.5 M200 49.5 C200.71 61.83, 193.64 66.37, 183.5 66 M200 49.5 C201.71 59.92, 194.13 67.2, 183.5 66 M183.5 66 C125.75 64.19, 63.18 66.04, 16.5 66 M183.5 66 C125.29 63.88, 67.52 64.74, 16.5 66 M16.5 66 C6.89 64.14, 1.7 60.16, 0 49.5 M16.5 66 C5.3 63.93, 0.78 60.85, 0 49.5 M0 49.5 C1.3 38.52, 0.93 24.92, 0 16.5 M0 49.5 C-0.54 41.78, -0.89 36.7, 0 16.5 M0 16.5 C-0.78 7.21, 4.85 -1.72, 16.5 0 M0 16.5 C0.41 4.03, 4.35 1.04, 16.5 0" stroke="#1e1e1e" stroke-width="2" fill="none"></path></g><g stroke-linecap="round" transform="translate(510 150) rotate(0 100 33)"><path d="M16.5 0 C56.85 1.16, 98.38 -1.14, 183.5 0 C193.01 -0.75, 201.51 4.18, 200 16.5 C199.58 28.08, 196.38 40.41, 200 49.5 C202.37 60.88, 195.22 66.79, 183.5 66 C115.4 68.55, 54.75 67.32, 16.5 66 C4.86 64.7, -1.73 61.39, 0 49.5 C0.86 45.08, -3.91 34.49, 0 16.5 C-0.86 8.83, 4.74 2.46, 16.5 0" stroke="none" stroke-width="0" fill="#d0bfff"></path><path d="M16.5 0 C51.53 1.91, 88.54 -1.5, 183.5 0 M16.5 0 C75.7 1.18, 134.36 0.53, 183.5 0 M183.5 0 C196.45 1.17, 198.7 6.06, 200 16.5 M183.5 0 C193.13 -1.69, 198.18 7.1, 200 16.5 M200 16.5 C201.06 26.26, 201.54 34.4, 200 49.5 M200 16.5 C200.4 23.42, 199.59 31.38, 200 49.5 M200 49.5 C200.17 61.9, 193.05 65.09, 183.5 66 M200 49.5 C200.88 62.12, 195.6 68.02, 183.5 66 M183.5 66 C140.98 66.98, 102.67 64.26, 16.5 66 M183.5 66 C145.62 66.69, 106.58 65.96, 16.5 66 M16.5 66 C6.05 66.15, -0.58 58.75, 0 49.5 M16.5 66 C6.65 65.59, -0.1 62.09, 0 49.5 M0 49.5 C-1.04 37.26, -1.37 22.78, 0 16.5 M0 49.5 C-0.93 42.69, -0.7 34.87, 0 16.5 M0 16.5 C1.95 4.43, 4.37 -0.83, 16.5 0 M0 16.5 C0.73 3.41, 4.06 -0.93, 16.5 0" stroke="#1e1e1e" stroke-width="2" fill="none"></path></g><g stroke-linecap="round" transform="translate(260 150) rotate(0 100 33)"><path d="M16.5 0 C79.01 0.78, 139.86 -3.98, 183.5 0 C195.16 2, 198.32 5.85, 200 16.5 C202.66 29.22, 196.84 37.63, 200 49.5 C197.99 58.7, 197.33 68.43, 183.5 66 C118.07 62.19, 53.73 65.05, 16.5 66 C5.72 64.26, 0.9 60.94, 0 49.5 C-1.52 37.06, 2.8 24.66, 0 16.5 C2.53 2.82, 2.61 -2.54, 16.5 0" stroke="none" stroke-width="0" fill="#fff3bf"></path><path d="M16.5 0 C76.65 1.8, 134.26 0.9, 183.5 0 M16.5 0 C60.93 1.44, 106.32 -0.08, 183.5 0 M183.5 0 C193.81 -0.17, 198.05 4.67, 200 16.5 M183.5 0 C194.02 -0.62, 202.12 5.08, 200 16.5 M200 16.5 C199.75 23.58, 199.34 29.26, 200 49.5 M200 16.5 C200.73 25.18, 200.5 33.19, 200 49.5 M200 49.5 C198.74 60.43, 194.48 66.5, 183.5 66 M200 49.5 C201.45 62.35, 195.92 67.07, 183.5 66 M183.5 66 C146.4 65.97, 108.62 66.86, 16.5 66 M183.5 66 C132.06 65.5, 79.7 65.64, 16.5 66 M16.5 66 C5.82 64.89, -1.21 59.37, 0 49.5 M16.5 66 C4.95 65.01, -2.17 59.26, 0 49.5 M0 49.5 C0.51 37.94, 1.06 25.42, 0 16.5 M0 49.5 C1.1 40.78, -0.65 30.94, 0 16.5 M0 16.5 C-0.38 7.16, 6.79 1.69, 16.5 0 M0 16.5 C0.59 4.21, 5.49 -1.4, 16.5 0" stroke="#1e1e1e" stroke-width="2" fill="none"></path></g><g stroke-linecap="round" transform="translate(10 150) rotate(0 100 33)"><path d="M16.5 0 C53.19 4.87, 87.78 -0.84, 183.5 0 C191.57 2.28, 197.19 2.5, 200 16.5 C198.28 27.58, 197.17 43.53, 200 49.5 C200.02 61.98, 197.35 69.02, 183.5 66 C138.21 69.49, 95.02 68.54, 16.5 66 C7.54 63.23, -2.23 59.51, 0 49.5 C-1.84 41.9, -3.01 28.65, 0 16.5 C-1.46 4.83, 3.65 2.27, 16.5 0" stroke="none" stroke-width="0" fill="#b2f2bb"></path><path d="M16.5 0 C75.63 0.32, 132.44 -2.98, 183.5 0 M16.5 0 C78.94 1.31, 141.68 1.62, 183.5 0 M183.5 0 C195.16 -0.15, 198.32 5.54, 200 16.5 M183.5 0 C192.69 -2.17, 201.67 5.42, 200 16.5 M200 16.5 C201.24 28.78, 198.53 40.24, 200 49.5 M200 16.5 C201.02 24, 200.72 30.93, 200 49.5 M200 49.5 C201.87 59.86, 193.47 66.67, 183.5 66 M200 49.5 C202.19 60.88, 196.16 64.1, 183.5 66 M183.5 66 C133.91 66.29, 85.27 66.64, 16.5 66 M183.5 66 C119.88 63.6, 55.03 65.2, 16.5 66 M16.5 66 C6.92 65.2, 0.82 59.8, 0 49.5 M16.5 66 C5.18 64.57, -1.64 58.59, 0 49.5 M0 49.5 C-1.05 39.2, 1.91 30.46, 0 16.5 M0 49.5 C-0.43 38.77, 1.22 28.14, 0 16.5 M0 16.5 C0.61 6.16, 5.29 -0.45, 16.5 0 M0 16.5 C-0.56 5.78, 7 -1.31, 16.5 0" stroke="#1e1e1e" stroke-width="2" fill="none"></path></g><g stroke-linecap="round"><g transform="translate(210 43) rotate(0 25 0)"><path d="M-1.11 -0.23 C7.11 0.01, 41.09 1.05, 49.7 0.95 M0.51 -1.4 C8.52 -1.43, 40.33 -0.91, 48.59 -0.67" stroke="#1e1e1e" stroke-width="2" fill="none"></path></g><g transform="translate(210 43) rotate(0 25 0)"><path d="M24.92 7.37 C32.36 4.45, 42.12 3.24, 48.59 -0.67 M24.92 7.37 C31.08 4.71, 35.19 2.84, 48.59 -0.67" stroke="#1e1e1e" stroke-width="2" fill="none"></path></g><g transform="translate(210 43) rotate(0 25 0)"><path d="M25.29 -9.73 C32.53 -7.03, 42.17 -2.61, 48.59 -0.67 M25.29 -9.73 C31.25 -8.43, 35.27 -6.34, 48.59 -0.67" stroke="#1e1e1e" stroke-width="2" fill="none"></path></g></g><mask></mask><g stroke-linecap="round"><g transform="translate(460 43) rotate(0 25 0)"><path d="M-0.16 -0.79 C8.23 -0.95, 42.94 -0.87, 51.19 -0.78 M-1.7 1.41 C6.56 1.38, 42.54 0.43, 50.86 0.34" stroke="#1e1e1e" stroke-width="2" fill="none"></path></g><g transform="translate(460 43) rotate(0 25 0)"><path d="M27.54 9.35 C34.86 8.02, 43.53 1.58, 50.86 0.34 M27.54 9.35 C33.5 6.61, 41.02 4.09, 50.86 0.34" stroke="#1e1e1e" stroke-width="2" fill="none"></path></g><g transform="translate(460 43) rotate(0 25 0)"><path d="M27.21 -7.75 C34.67 -2.74, 43.46 -2.83, 50.86 0.34 M27.21 -7.75 C33.22 -5.77, 40.84 -3.58, 50.86 0.34" stroke="#1e1e1e" stroke-width="2" fill="none"></path></g></g><mask></mask><g stroke-linecap="round"><g transform="translate(610 76) rotate(0 0 37)"><path d="M-0.82 0.66 C-0.88 12.8, -1.26 61.09, -1.08 73.49 M0.96 -0.03 C1.31 12.21, 1.29 62.54, 1.07 74.76" stroke="#1e1e1e" stroke-width="2" fill="none"></path></g><g transform="translate(610 76) rotate(0 0 37)"><path d="M-7.31 51.21 C-4.04 55.19, -3.96 63.15, 1.07 74.76 M-7.31 51.21 C-4.75 60.52, -1.01 69.29, 1.07 74.76" stroke="#1e1e1e" stroke-width="2" fill="none"></path></g><g transform="translate(610 76) rotate(0 0 37)"><path d="M9.79 51.33 C8.91 55.16, 4.84 63.1, 1.07 74.76 M9.79 51.33 C5.68 60.45, 2.76 69.18, 1.07 74.76" stroke="#1e1e1e" stroke-width="2" fill="none"></path></g></g><mask></mask><g stroke-linecap="round"><g transform="translate(510 183) rotate(0 -25 0)"><path d="M-1.18 1.08 C-9.27 1.23, -41.08 0.97, -49.33 0.98 M0.39 0.6 C-7.72 0.42, -41.83 -0.43, -49.93 -0.64" stroke="#1e1e1e" stroke-width="2" fill="none"></path></g><g transform="translate(510 183) rotate(0 -25 0)"><path d="M-26.23 -8.6 C-29.94 -5.87, -35.63 -6.32, -49.93 -0.64 M-26.23 -8.6 C-34.59 -6.34, -44.55 -1.9, -49.93 -0.64" stroke="#1e1e1e" stroke-width="2" fill="none"></path></g><g transform="translate(510 183) rotate(0 -25 0)"><path d="M-26.66 8.5 C-30.28 7.25, -35.87 2.82, -49.93 -0.64 M-26.66 8.5 C-34.9 4.02, -44.7 1.72, -49.93 -0.64" stroke="#1e1e1e" stroke-width="2" fill="none"></path></g></g><mask></mask><g stroke-linecap="round"><g transform="translate(260 183) rotate(0 -25 0)"><path d="M0.92 0.43 C-7.3 0.58, -41.1 1.21, -49.54 1.19 M-0.06 -0.39 C-8.37 -0.56, -41.86 -0.67, -50.25 -0.31" stroke="#1e1e1e" stroke-width="2" fill="none"></path></g><g transform="translate(260 183) rotate(0 -25 0)"><path d="M-26.9 -9.24 C-32.68 -5.8, -37.94 -3.65, -50.25 -0.31 M-26.9 -9.24 C-33.49 -6.73, -41.36 -4.26, -50.25 -0.31" stroke="#1e1e1e" stroke-width="2" fill="none"></path></g><g transform="translate(260 183) rotate(0 -25 0)"><path d="M-26.62 7.86 C-32.52 6.52, -37.86 3.9, -50.25 -0.31 M-26.62 7.86 C-33.4 4.79, -41.36 1.69, -50.25 -0.31" stroke="#1e1e1e" stroke-width="2" fill="none"></path></g></g><mask></mask></svg>